USFL
nRows=131
nColumns=2
inDegrees=yes
endheader
time	med_gas_r	
2.8629	 59.836128	
2.93448	 59.831206	
3.00605	 59.849634	
3.07762	 59.786455	
3.14919	 59.749694	
3.22077	 59.804891	
3.29234	 59.736828	
3.36391	 59.668060	
3.43548	 59.660150	
3.50706	 59.626545	
3.57863	 59.576561	
3.6502	 59.508117	
3.72177	 59.484372	
3.79335	 59.472076	
3.86492	 59.525106	
3.93649	 59.527426	
4.00806	 59.481584	
4.07964	 59.543613	
4.15121	 59.528423	
4.22278	 59.526208	
4.29435	 59.451910	
4.36593	 59.333397	
4.4375	 59.255973	
4.50907	 59.299181	
4.58065	 59.331822	
4.65222	 59.273555	
4.72379	 59.332820	
4.79536	 59.295929	
4.86694	 59.173488	
4.93851	 59.251777	
5.01008	 59.267331	
5.08165	 59.152090	
5.15323	 59.227453	
5.2248	 59.169518	
5.29637	 59.019718	
5.36794	 59.112766	
5.43952	 58.992930	
5.51109	 58.747770	
5.58266	 58.919330	
5.65423	 58.996292	
5.72581	 58.815737	
5.79738	 59.224300	
5.86895	 60.475107	
5.94052	 59.974813	
6.0121	 57.586842	
6.08367	 57.810393	
6.15524	 56.373323	
6.22681	 55.090454	
6.29839	 53.263618	
6.36996	 50.269387	
6.44153	 50.909865	
6.5131	 47.077106	
6.58468	 45.515958	
6.65625	 43.686214	
6.72782	 44.319424	
6.7994	 43.004681	
6.87097	 44.232430	
6.94254	 43.374157	
7.01411	 43.245956	
7.08569	 42.924617	
7.15726	 42.456428	
7.22883	 42.470070	
7.3004	 42.081076	
7.37198	 41.735268	
7.44355	 41.722994	
7.51512	 41.699039	
7.58669	 41.502891	
7.65827	 41.527143	
7.72984	 41.406890	
7.80141	 41.465819	
7.87298	 41.361452	
7.94456	 41.240167	
8.01613	 40.972508	
8.0877	 41.091988	
8.15927	 41.114382	
8.23085	 41.049409	
8.30242	 41.092405	
8.37399	 40.993899	
8.44556	 40.768444	
8.51714	 40.677912	
8.58871	 40.714281	
8.66028	 40.589514	
8.73185	 40.487780	
8.80343	 40.616102	
8.875	 40.662976	
8.94657	 40.655060	
9.01815	 40.722479	
9.08972	 40.598316	
9.16129	 40.519889	
9.23286	 40.522327	
9.30444	 40.425505	
9.37601	 40.369740	
9.44758	 40.414396	
9.51915	 40.438427	
9.59073	 40.434216	
9.6623	 40.469980	
9.73387	 40.391591	
9.80544	 40.280760	
9.87702	 40.321908	
9.94859	 40.404425	
10.0202	 40.273921	
10.0917	 40.336109	
10.1633	 40.227960	
10.2349	 40.170250	
10.3065	 40.179687	
10.378	 40.212844	
10.4496	 40.219449	
10.5212	 40.217242	
10.5927	 40.165305	
10.6643	 40.208838	
10.7359	 40.242853	
10.8075	 40.272715	
10.879	 40.245095	
10.9506	 40.317996	
11.0222	 40.467781	
11.0937	 40.519528	
11.1653	 40.600417	
11.2369	 40.433468	
11.3085	 42.918841	
11.38	 43.941041	
11.4516	 43.036597	
11.5232	 48.134096	
11.5948	 48.102485	
11.6663	 49.371384	
11.7379	 49.617177	
11.8095	 49.523655	
11.881	 49.852905	
11.9526	 50.468265	
12.0242	 50.440333	
12.0958	 50.830328	
12.1673	 51.280265	
